<svg width="22" height="22" viewBox="0 0 22 22" fill="none" xmlns="http://www.w3.org/2000/svg">
<path d="M11 4.8125C9.77623 4.8125 8.57994 5.17539 7.56241 5.85528C6.54488 6.53517 5.75181 7.50153 5.2835 8.63215C4.81518 9.76276 4.69265 11.0069 4.93139 12.2071C5.17014 13.4074 5.75944 14.5099 6.62478 15.3752C7.49011 16.2406 8.59262 16.8299 9.79288 17.0686C10.9931 17.3074 12.2372 17.1848 13.3679 16.7165C14.4985 16.2482 15.4648 15.4551 16.1447 14.4376C16.8246 13.4201 17.1875 12.2238 17.1875 11C17.1857 9.35954 16.5332 7.78679 15.3732 6.62681C14.2132 5.46683 12.6405 4.81434 11 4.8125ZM11 15.125C10.1842 15.125 9.38663 14.8831 8.70827 14.4298C8.02992 13.9766 7.50121 13.3323 7.189 12.5786C6.87679 11.8248 6.7951 10.9954 6.95426 10.1953C7.11343 9.39508 7.50629 8.66008 8.08318 8.08318C8.66008 7.50629 9.39508 7.11343 10.1953 6.95426C10.9954 6.7951 11.8248 6.87679 12.5786 7.189C13.3323 7.50121 13.9766 8.02992 14.4298 8.70827C14.8831 9.38663 15.125 10.1842 15.125 11C15.1238 12.0936 14.6888 13.1421 13.9155 13.9155C13.1421 14.6888 12.0936 15.1238 11 15.125V15.125ZM9.96875 2.40625V1.71875C9.96875 1.44525 10.0774 1.18294 10.2708 0.989546C10.4642 0.796149 10.7265 0.6875 11 0.6875C11.2735 0.6875 11.5358 0.796149 11.7292 0.989546C11.9226 1.18294 12.0312 1.44525 12.0312 1.71875V2.40625C12.0312 2.67975 11.9226 2.94206 11.7292 3.13545C11.5358 3.32885 11.2735 3.4375 11 3.4375C10.7265 3.4375 10.4642 3.32885 10.2708 3.13545C10.0774 2.94206 9.96875 2.67975 9.96875 2.40625ZM16.3475 5.65245C16.1541 5.45906 16.0454 5.19677 16.0454 4.92327C16.0454 4.64978 16.1541 4.38749 16.3475 4.19409L16.8337 3.70795C16.9294 3.61176 17.0431 3.5354 17.1683 3.48323C17.2935 3.43106 17.4278 3.40412 17.5635 3.40394C17.6991 3.40376 17.8335 3.43034 17.9589 3.48218C18.0842 3.53401 18.1982 3.61007 18.2941 3.706C18.39 3.80193 18.4661 3.91585 18.5179 4.04122C18.5697 4.16659 18.5963 4.30096 18.5961 4.43662C18.5959 4.57228 18.569 4.70657 18.5168 4.8318C18.4646 4.95703 18.3882 5.07073 18.2921 5.16639L17.8058 5.65254C17.6124 5.84592 17.3501 5.95456 17.0766 5.95456C16.8031 5.95456 16.5409 5.84592 16.3475 5.65254V5.65245ZM21.3125 11C21.3125 11.2735 21.2039 11.5358 21.0105 11.7292C20.8171 11.9226 20.5548 12.0312 20.2812 12.0312H19.5938C19.3202 12.0312 19.0579 11.9226 18.8645 11.7292C18.6711 11.5358 18.5625 11.2735 18.5625 11C18.5625 10.7265 18.6711 10.4642 18.8645 10.2708C19.0579 10.0774 19.3202 9.96875 19.5938 9.96875H20.2812C20.5548 9.96875 20.8171 10.0774 21.0105 10.2708C21.2039 10.4642 21.3125 10.7265 21.3125 11V11ZM18.2921 16.8336C18.4846 17.0272 18.5925 17.2892 18.5921 17.5622C18.5918 17.8352 18.4832 18.097 18.2901 18.29C18.0971 18.4831 17.8353 18.5917 17.5623 18.5921C17.2893 18.5925 17.0273 18.4846 16.8337 18.2921L16.3475 17.8059C16.2504 17.7104 16.1732 17.5967 16.1204 17.4712C16.0675 17.3458 16.04 17.2111 16.0395 17.075C16.0389 16.9389 16.0653 16.804 16.1171 16.6781C16.169 16.5522 16.2452 16.4378 16.3415 16.3416C16.4378 16.2453 16.5521 16.1691 16.678 16.1172C16.8039 16.0654 16.9388 16.039 17.0749 16.0395C17.211 16.0401 17.3457 16.0676 17.4712 16.1205C17.5966 16.1733 17.7103 16.2505 17.8058 16.3475L18.2921 16.8336ZM12.0312 19.5938V20.2812C12.0312 20.5548 11.9226 20.8171 11.7292 21.0105C11.5358 21.2039 11.2735 21.3125 11 21.3125C10.7265 21.3125 10.4642 21.2039 10.2708 21.0105C10.0774 20.8171 9.96875 20.5548 9.96875 20.2812V19.5938C9.96875 19.3202 10.0774 19.0579 10.2708 18.8645C10.4642 18.6711 10.7265 18.5625 11 18.5625C11.2735 18.5625 11.5358 18.6711 11.7292 18.8645C11.9226 19.0579 12.0312 19.3202 12.0312 19.5938ZM5.65254 16.3475C5.84592 16.5409 5.95456 16.8031 5.95456 17.0766C5.95456 17.3501 5.84592 17.6124 5.65254 17.8058L5.16639 18.2921C4.97282 18.4846 4.7108 18.5925 4.43778 18.5921C4.16476 18.5918 3.90303 18.4832 3.70997 18.2901C3.51691 18.0971 3.40828 17.8353 3.4079 17.5623C3.40752 17.2893 3.51542 17.0273 3.70795 16.8337L4.19409 16.3475C4.38749 16.1541 4.64978 16.0454 4.92327 16.0454C5.19677 16.0454 5.45906 16.1541 5.65245 16.3475H5.65254ZM3.4375 11C3.4375 11.2735 3.32885 11.5358 3.13545 11.7292C2.94206 11.9226 2.67975 12.0312 2.40625 12.0312H1.71875C1.44525 12.0312 1.18294 11.9226 0.989546 11.7292C0.796149 11.5358 0.6875 11.2735 0.6875 11C0.6875 10.7265 0.796149 10.4642 0.989546 10.2708C1.18294 10.0774 1.44525 9.96875 1.71875 9.96875H2.40625C2.67975 9.96875 2.94206 10.0774 3.13545 10.2708C3.32885 10.4642 3.4375 10.7265 3.4375 11V11ZM3.70795 5.16639C3.61175 5.07073 3.53538 4.95703 3.48321 4.8318C3.43104 4.70657 3.40408 4.57228 3.40389 4.43662C3.4037 4.30096 3.43029 4.16659 3.48211 4.04122C3.53394 3.91585 3.60999 3.80193 3.70592 3.706C3.80184 3.61007 3.91575 3.53401 4.04112 3.48218C4.16649 3.43034 4.30085 3.40376 4.43651 3.40394C4.57218 3.40412 4.70647 3.43106 4.8317 3.48323C4.95693 3.5354 5.07064 3.61176 5.1663 3.70795L5.65245 4.19409C5.74949 4.28957 5.82667 4.40331 5.87953 4.52876C5.9324 4.65421 5.9599 4.78888 5.96045 4.92501C5.96101 5.06114 5.9346 5.19604 5.88276 5.32191C5.83092 5.44779 5.75468 5.56216 5.65842 5.65842C5.56216 5.75468 5.44779 5.83092 5.32191 5.88276C5.19604 5.9346 5.06114 5.96101 4.92501 5.96045C4.78888 5.9599 4.65421 5.9324 4.52876 5.87953C4.40331 5.82667 4.28957 5.74949 4.19409 5.65245L3.70795 5.16639Z" fill="#C68E57"/>
</svg>
