<svg width="21" height="21" viewBox="0 0 21 21" fill="none" xmlns="http://www.w3.org/2000/svg">
<path d="M8.87937 2.74836C8.54736 4.1659 8.5022 5.63553 8.74657 7.07078C8.99093 8.50602 9.51988 9.8779 10.3023 11.1057C11.0847 12.3335 12.1048 13.3924 13.3025 14.2202C14.5002 15.0479 15.8513 15.6277 17.2764 15.9256C16.5272 16.7008 15.6298 17.3176 14.6376 17.7394C13.6454 18.1611 12.5786 18.3793 11.5005 18.3808C11.4005 18.3808 11.2991 18.3844 11.1977 18.3808C9.32071 18.3147 7.52618 17.5931 6.12588 16.3414C4.72557 15.0897 3.808 13.3871 3.53255 11.5292C3.25711 9.67133 3.6412 7.77568 4.61811 6.17156C5.59502 4.56745 7.10301 3.35624 8.88009 2.74836H8.87937ZM9.94982 1C9.90732 1.00014 9.86491 1.00402 9.82308 1.01159C7.51748 1.4219 5.44518 2.67064 4.00517 4.51739C2.56515 6.36414 1.85923 8.67833 2.02333 11.0144C2.18742 13.3505 3.20992 15.5432 4.89397 17.1705C6.57802 18.7979 8.80454 19.7446 11.1449 19.8286C11.2636 19.8329 11.3824 19.8286 11.4997 19.8286C13.0199 19.8296 14.518 19.4645 15.8673 18.7642C17.2165 18.0639 18.3773 17.049 19.2515 15.8053C19.3223 15.6981 19.3637 15.5742 19.3714 15.4459C19.3791 15.3177 19.3529 15.1897 19.2954 15.0748C19.2379 14.9599 19.1511 14.8622 19.0439 14.7914C18.9366 14.7207 18.8127 14.6795 18.6844 14.6719C17.2375 14.5449 15.8392 14.0869 14.5975 13.3333C13.3559 12.5797 12.3041 11.5507 11.5236 10.3259C10.743 9.10098 10.2546 7.71302 10.096 6.26926C9.93736 4.82549 10.1129 3.3646 10.6089 1.99948C10.6511 1.89021 10.6666 1.77244 10.654 1.65598C10.6415 1.53952 10.6013 1.42774 10.5368 1.32995C10.4724 1.23216 10.3854 1.1512 10.2833 1.09381C10.1812 1.03641 10.0669 1.00425 9.94982 1Z" fill="#97A4A9"/>
</svg>
